HIERARCHY
ROOT pelvis
{
  OFFSET 0 100 0
  CHANNELS 6 Xposition Yposition Zposition Zrotation Xrotation Yrotation
  JOINT pelvis_right_femur
  {
    OFFSET -10.78128 -3.44521 -0.5502486
    CHANNELS 3 Zrotation Xrotation Yrotation
    JOINT right_femur_tibia
    {
      OFFSET -0.8047443 -44.0398 -0.1307829
      CHANNELS 3 Zrotation Xrotation Yrotation
      JOINT right_tibia_foot
      {
        OFFSET 3.006224 -47.83518 -5
        CHANNELS 3 Zrotation Xrotation Yrotation
        End Site
        {
          OFFSET 0 -5 15
        }
      }
    }
  }
  JOINT pelvis_left_femur
  {
    OFFSET 10.78128 -3.44521 -0.5502486
    CHANNELS 3 Zrotation Xrotation Yrotation
    JOINT left_femur_tibia
    {
      OFFSET 0.8047443 -44.0398 -0.1307829
      CHANNELS 3 Zrotation Xrotation Yrotation
      JOINT left_tibia_foot
      {
        OFFSET -4.370144 -48.10324 -4.275266
        CHANNELS 3 Zrotation Xrotation Yrotation
        End Site
        {
          OFFSET 0 -5 15
        }
      }
    }
  }
  JOINT pelvis_spine1
  {
    OFFSET 0 6.468898 -3.129235
    CHANNELS 3 Zrotation Xrotation Yrotation
    JOINT spine1
    {
      OFFSET 0 23.15396 4.99043
      CHANNELS 3 Zrotation Xrotation Yrotation
      JOINT spine2
      {
        OFFSET 0 20.79997 -5.064912
        CHANNELS 3 Zrotation Xrotation Yrotation
        JOINT neck
        {
          OFFSET 0 14.38658 9.616178
          CHANNELS 3 Zrotation Xrotation Yrotation
          End Site
          {
            OFFSET 0 20 0
          }
        }
      }
      JOINT right_manubrium
      {
        OFFSET -5.722621 16.35077 3.967754
        CHANNELS 3 Zrotation Xrotation Yrotation
        JOINT right_clavicle
        {
          OFFSET -13.16364 1.694482 -4.693211
          CHANNELS 3 Zrotation Xrotation Yrotation
          JOINT right_humerus
          {
            OFFSET -28.5034 -0.3100689 -2.792744
            CHANNELS 3 Zrotation Xrotation Yrotation
            JOINT right_radius
            {
              OFFSET -25.15693 0.02248979 -1.271978
              CHANNELS 3 Zrotation Xrotation Yrotation
              End Site
              {
                OFFSET -15 0 0
              }
            }
          }
        }
      }
      JOINT left_manubrium
      {
        OFFSET 5.722621 16.35077 3.967754
        CHANNELS 3 Zrotation Xrotation Yrotation
        JOINT left_clavicle
        {
          OFFSET 13.16364 1.694482 -4.693211
          CHANNELS 3 Zrotation Xrotation Yrotation
          JOINT left_humerus
          {
            OFFSET 29.39168 -1.063119 -2.237045
            CHANNELS 3 Zrotation Xrotation Yrotation
            JOINT left_radius
            {
              OFFSET 24.59957 -0.9528479 0.9047498
              CHANNELS 3 Zrotation Xrotation Yrotation
              End Site
              {
                OFFSET 15 -0 -0
              }
            }
          }
        }
      }
    }
  }
}
MOTION
Frames: 7
Frame Time: 0.0416666666667
1567.598 103.2802 2529.273 2.562768 -2.315943 60.8225 6.308754 -10.15916 5.116396 -0 13.72438 -0 -4.462226 -6.010461 -4.411829 -2.730222 0.404423 -8.819849 -0 59.09873 -0 -8.769508 -5.7999 11.40031 0.0920862 0.1294087 5.315327 2.094243 10.48138 -6.949958 1.495282 21.46455 6.432908 3.5001 -21.26961 7.039644 4.934806 -15.20257 11.81347 87.47308 30.88996 -20.81783 -0 0 9.561239 -17.02073 14.22476 8.771779 4.364337 -20.72324 -3.154025 -88.67793 24.45148 16.01269 0 0 -21.14008 1.829591 9.743978 12.89383
1572.504 104.5742 2532.153 3.402426 -2.134873 60.18646 5.663284 -4.847865 4.556336 -0 12.41457 -0 -5.016296 -7.222416 -3.429085 -2.242838 -6.993607 -7.607624 -0 61.93654 -0 -8.620242 -4.798319 11.85496 -0.4014969 0.696508 6.470663 1.718767 10.91704 -6.244464 1.411528 21.78197 6.184547 3.71158 -20.63375 6.393838 5.274058 -16.24001 12.21187 85.78904 31.63132 -18.57535 -0 0 11.24375 -17.93217 14.12404 9.524006 4.113866 -20.735 -3.134922 -89.54228 24.18576 18.02741 0 0 -20.25919 1.429873 9.492095 13.52974
1577.333 105.571 2534.926 4.132533 -2.066026 59.60267 5.247581 0.2734405 4.297487 -0 11.44088 -0 -4.862239 -8.522313 -2.757715 -1.302301 -13.39598 -5.854794 -0 59.3971 -0 -7.972666 -4.335955 12.90272 -0.8095459 0.9507077 7.29981 1.341085 11.29153 -5.714638 1.288352 21.83759 5.864027 3.674872 -19.74171 5.764391 5.225914 -17.57137 12.48491 83.9858 31.59452 -15.93456 -0 0 13.50651 -19.10581 14.06005 10.43857 4.096094 -20.72592 -3.05071 -89.83443 23.27015 19.37117 0 0 -19.79497 1.352013 8.814675 13.50932
1582.194 106.0791 2537.625 4.454148 -2.081811 59.05644 5.038137 4.903086 4.176494 -0 10.71769 -0 -4.337327 -10.50426 -2.173565 -0.04104729 -18.79417 -4.087897 -0 52.13765 -0 -7.175391 -4.379046 14.22662 -1.011376 1.041269 7.782366 1.014123 11.3315 -5.281037 1.150177 21.75886 5.563668 3.451224 -18.9837 5.308891 4.772834 -19.07014 12.55789 82.11431 30.88404 -12.90119 -0 0 16.3047 -20.09267 13.65461 11.41362 4.22121 -20.41361 -2.825187 -90.1456 22.41478 20.5773 0 0 -19.10922 1.284353 8.098307 13.30332
1587.158 105.9682 2540.262 4.347817 -2.111902 58.50858 4.875944 8.89544 4.022831 -0 9.992707 -0 -3.641428 -13.14059 -1.566327 1.260785 -23.12637 -2.696413 -0 41.88757 -0 -6.428765 -4.835025 15.61106 -1.04941 1.054807 7.979843 0.7347575 10.96093 -4.874623 1.04516 21.67471 5.368148 3.142264 -18.47622 5.124617 4.019198 -20.47276 12.39454 80.33476 29.84022 -9.736209 -0 0 19.21383 -20.88931 12.94323 12.4141 4.432939 -19.74147 -2.469923 -90.63084 21.94669 21.69645 0 0 -18.00388 1.101511 7.621777 13.15799
1592.278 105.2281 2542.863 3.993788 -2.105527 57.91693 4.587227 12.24122 3.771184 -0 9.312292 -0 -2.882589 -15.89905 -0.9436144 2.249975 -26.26235 -1.971676 -0 31.04942 -0 -5.829393 -5.551867 16.94365 -1.039705 1.016208 7.989161 0.4695915 10.26547 -4.445345 1.036757 21.6895 5.311877 2.852601 -18.17893 5.240782 3.124343 -21.48908 12.00826 78.84013 28.80424 -6.799018 -0 0 21.68292 -21.65186 12.1159 13.39198 4.675348 -18.78066 -2.051573 -91.22927 21.92888 22.57078 0 0 -16.46833 0.8099162 7.536083 13.1466
1597.6 104.0126 2545.474 3.646373 -2.03285 57.26163 4.053048 14.96984 3.462958 -0 9.184885 -0 -2.169037 -17.87449 -0.3904733 2.61549 -28.10892 -2.049944 -0 22.17492 -0 -5.409527 -6.336014 18.11659 -1.11314 0.914836 7.923295 0.1841285 9.459549 -3.984888 1.163168 21.83857 5.377274 2.67603 -18.00993 5.597042 2.300657 -21.92968 11.48961 77.79271 28.06439 -4.457804 -0 0 23.26045 -22.51903 11.39401 14.26356 4.874252 -17.69561 -1.66817 -91.81879 22.24726 23.10032 0 0 -14.61042 0.4683925 7.837485 13.27609
